<?xml version="1.0" encoding="utf-8"?>
<!-- Generator: Adobe Illustrator 25.1.0, SVG Export Plug-In . SVG Version: 6.00 Build 0)  -->
<svg version="1.1" id="Layer_1" xmlns="http://www.w3.org/2000/svg" xmlns:xlink="http://www.w3.org/1999/xlink" x="0px" y="0px"
	 viewBox="0 0 612 396" style="enable-background:new 0 0 612 396;" xml:space="preserve">
<style type="text/css">
	.st0{fill:url(#SVGID_1_);}
	.st1{opacity:0.53;fill:none;stroke:#FFFFFF;stroke-width:0.741;stroke-miterlimit:10;}
	.st2{fill:#FF970B;}
	.st3{fill:#E4E0DE;}
	.st4{fill:#C6C6C6;}
	.st5{fill:#E98212;}
	.st6{fill:#FF9C14;}
	.st7{fill:#3BB1AC;}
	.st8{fill:#FFAE41;}
	.st9{fill:#2A8C85;}
	.st10{fill:#F4F4F4;}
	.st11{opacity:0.63;fill:#B2B2B2;}
	.st12{fill:none;stroke:#DADADA;stroke-width:1.0538;stroke-linecap:round;stroke-linejoin:round;}
	.st13{fill:#6FD7D3;}
	.st14{fill:#BE2F2C;}
	.st15{fill:#F4615D;}
	.st16{fill:#D53E3B;}
	.st17{fill:none;stroke:#C6C6C6;stroke-width:0.9503;stroke-linecap:round;stroke-linejoin:round;}
	.st18{fill:#4745AA;}
	.st19{fill:#7E8FE9;}
	.st20{fill:none;stroke:#DADADA;stroke-width:0.9154;stroke-linecap:round;stroke-linejoin:round;}
	.st21{fill:#6D6BBB;}
	.st22{fill:#684836;}
	.st23{fill:#D2CBC4;}
	.st24{fill:#3A3898;}
	.st25{fill:#2FA29A;}
	.st26{fill:#F0AB87;}
	.st27{fill:#FFC8A4;}
	.st28{fill:#54293A;}
	.st29{fill:#E5D19D;}
	.st30{fill:#F7E3A6;}
	.st31{fill:#F3E6BE;}
	.st32{fill:#51C3C1;}
</style>
<g>
	<g>
		
			<linearGradient id="SVGID_1_" gradientUnits="userSpaceOnUse" x1="213.8891" y1="153.4777" x2="157.4487" y2="53.2473" gradientTransform="matrix(-1 0 0 1 523.1806 0)">
			<stop  offset="0" style="stop-color:#6FD7D3"/>
			<stop  offset="1" style="stop-color:#1A7FB0"/>
		</linearGradient>
		<path class="st0" d="M322,87.6c22.6-10.9,47.7-15.4,72.4-19.7c-6.8,26-14.9,54-36.3,70.3c-25.6,19.6-62,16.2-91.6,29.1
			c-0.8,0.4,3.3-23.4,4.2-25.7c2.9-7.4,6.5-14.7,11.1-21.2C291.8,106.1,306.3,95.1,322,87.6z"/>
		<path class="st1" d="M385.1,74.2c-16,17.1-38.8,25.7-59.2,37.1c-20.5,11.4-40.7,28.2-44.1,51.4"/>
	</g>
	<g>
		<path class="st2" d="M315.8,45.5c-1.1-4.5-2-9-2.6-13.7c-1.1,0.1-2.2-0.3-2.9-1.4c-0.7-1-0.7-2.5,0-3.7c1.5-2.7,4.9-3.2,6.4-1.1
			c0.7,1,0.7,2.4,0.2,3.6c-0.5,1.1-1.3,1.9-2.2,2.3c0.5,3.9,1.2,7.7,2,11.5c0.1,0.6,0.8,0.7,1.2,0.2c1.8-2.4,3.7-4.8,5.6-7.1
			c0.1-0.1,0.2-0.3,0.1-0.5c-0.6-4.5-1-9.2-1-14.1c-1.1-0.1-2.2-0.6-2.7-1.7c-0.5-1.1-0.3-2.6,0.6-3.8c2-2.6,5.5-2.7,6.6-0.4
			c0.5,1.1,0.3,2.5-0.4,3.7c-0.7,1.1-1.6,1.7-2.6,2c-0.1,4.1,0.2,8,0.6,11.9c0.1,0.5,0.7,0.7,1,0.3c3.7-4,7.7-7.8,12.2-11
			c-0.8-1.7,0.1-4,2.3-4.8c1.3-0.4,2.7-0.2,3.5,0.7c1.7,1.7,1.2,4.4-0.6,5.5c-1.4,0.9-3.1,0.8-4.4-0.3c-4.4,3.2-8.4,6.9-12.1,11
			c-0.3,0.4-0.1,1,0.4,1c1.9,0.1,3.9,0.2,5.8,0.4c1.9,0.2,3.8,0.5,5.6,0.8c0.2-0.8,0.8-1.5,1.7-1.8c1-0.4,2.2-0.1,3.1,0.6
			c1.9,1.7,1.9,4.5-0.1,5.4c-0.9,0.5-2.1,0.4-3.1-0.3c-1.1-0.7-1.6-1.6-1.8-2.6c-4.4-0.7-8.9-1.1-13.5-1.1c-0.2,0-0.3,0.1-0.5,0.2
			c-1.9,2.3-3.8,4.6-5.6,7c-0.3,0.5,0,1.1,0.5,1.1c3.9-0.3,7.7-0.4,11.4-0.2c0.2-0.8,0.6-1.6,1.5-2.1c1-0.5,2.3-0.5,3.3,0.2
			c2.1,1.4,2.4,4.2,0.5,5.5c-0.9,0.6-2.2,0.7-3.2,0.2c-1.1-0.5-1.8-1.4-2.1-2.4c-4.4-0.1-9,0.1-13.6,0.5c-0.2,0-0.4,0.1-0.5,0.3
			c-1.8,2.5-3.4,5-5.1,7.5c-0.3,0.4,0,0.9,0.5,0.8c3.9-0.5,7.9-1,11.7-1.3c0.1-0.9,0.5-1.7,1.4-2.3c1-0.7,2.3-0.8,3.3-0.2
			c2.3,1.1,2.8,4,0.9,5.6c-0.9,0.7-2.1,1-3.3,0.6c-1.2-0.4-1.9-1.3-2.2-2.3c-4.5,0.3-9.1,0.9-13.7,1.6c-0.2,0-0.3,0.1-0.4,0.3
			c-1.6,2.6-3.3,5.3-4.8,7.9c-0.2,0.4,0.1,0.9,0.5,0.8c3.9-0.7,7.8-1.3,11.7-1.9c0.1-0.9,0.4-1.8,1.3-2.5c0.9-0.7,2.2-1,3.3-0.5
			c2.4,0.9,3,3.9,1.2,5.7c-0.8,0.8-2.1,1.2-3.3,0.9c-1.2-0.3-2-1.2-2.3-2.2c-4.6,0.7-9.1,1.4-13.7,2.3c-0.2,0-0.3,0.1-0.4,0.3
			c-1.5,2.6-3,5.3-4.4,8c-0.2,0.4,0.1,0.9,0.6,0.8c3.9-0.9,7.8-1.6,11.6-2.3c0-0.9,0.4-1.8,1.2-2.5c0.9-0.8,2.2-1,3.3-0.6
			c2.4,0.9,3.2,3.8,1.4,5.6c-0.8,0.8-2.1,1.2-3.2,1c-1.2-0.3-2-1.1-2.4-2.1c-4.5,0.8-9,1.8-13.6,2.8c-0.2,0-0.3,0.1-0.4,0.3
			c-1.4,2.7-2.8,5.5-4.1,8.3c-0.2,0.4,0.2,0.9,0.6,0.8c3.8-1,7.7-2,11.5-2.8c0-0.9,0.3-1.8,1.1-2.6c0.9-0.8,2.1-1.2,3.3-0.8
			c2.4,0.7,3.3,3.7,1.6,5.6c-0.8,0.9-2,1.3-3.2,1.1c-1.2-0.2-2.1-1-2.5-2c-4.5,1-9,2.2-13.5,3.4c-0.2,0-0.3,0.2-0.4,0.3
			c-1.3,2.8-2.6,5.6-3.8,8.4c-0.2,0.4,0.2,0.8,0.6,0.7c3.8-1.1,7.7-2.2,11.5-3.2c0-0.9,0.2-1.8,1-2.6c0.8-0.9,2.1-1.2,3.2-1
			c2.5,0.6,3.4,3.6,1.8,5.6c-0.8,0.9-2,1.4-3.2,1.3c-1.2-0.2-2.1-0.9-2.6-1.9c-4.4,1.2-8.9,2.5-13.4,3.8c-0.1,0-0.3,0.2-0.3,0.3
			c-1.3,2.9-2.5,5.7-3.7,8.6c-0.2,0.4,0.2,0.8,0.6,0.7c3.8-1.2,7.6-2.4,11.4-3.5c-0.1-0.9,0.2-1.9,1-2.7c0.8-0.9,2.1-1.3,3.2-1.1
			c2.5,0.6,3.5,3.5,2,5.6c-0.7,1-2,1.5-3.2,1.4c-1.2-0.1-2.1-0.9-2.6-1.8c-4.4,1.3-8.9,2.7-13.3,4.2c-0.1,0-0.3,0.2-0.3,0.3
			l-3.5,8.5c-0.2,0.4,0.2,0.8,0.6,0.7l11.4-3.7c-0.1-0.9,0.2-1.9,0.9-2.7c0.8-0.9,2.1-1.4,3.2-1.1c2.5,0.5,3.6,3.4,2,5.6
			c-0.7,1-2,1.6-3.1,1.4c-1.2-0.1-2.1-0.9-2.6-1.8l-13.3,4.3c-0.1,0-0.3,0.2-0.3,0.3l-3.5,8.7c-0.2,0.4,0.2,0.8,0.6,0.7l11.4-3.8
			c-0.1-0.9,0.2-1.9,0.9-2.7c0.8-0.9,2.1-1.4,3.2-1.2c2.5,0.5,3.6,3.4,2.1,5.6c-0.7,1-2,1.6-3.1,1.5c-1.2-0.1-2.2-0.8-2.6-1.8
			l-13.3,4.4c-0.1,0-0.3,0.2-0.3,0.3c-2.9,7.2-5.9,14.3-9,21.5l-1.3-0.6c3.1-7.1,6.1-14.3,9.1-21.6c0.1-0.1,0.1-0.3,0-0.4l-6.3-12.2
			c-1,0.3-2.2,0.2-3.1-0.6c-0.9-0.8-1.4-2-1.2-3.3c0.4-2.7,3.3-4,5.4-2.6c1,0.7,1.5,1.9,1.5,3.1c-0.1,1.1-0.6,2-1.3,2.6l5.4,10.5
			c0.2,0.4,0.7,0.3,0.9-0.1l3.5-8.7c0.1-0.1,0.1-0.3,0-0.4l-6.2-12.3c-1,0.3-2.2,0.2-3.1-0.6c-0.9-0.8-1.4-2.1-1.2-3.3
			c0.5-2.7,3.4-4,5.5-2.6c1,0.7,1.5,1.9,1.4,3.2c-0.1,1.1-0.6,2-1.3,2.6l5.3,10.5c0.2,0.4,0.7,0.3,0.9-0.1l3.5-8.5
			c0.1-0.1,0.1-0.3,0-0.4c-2.1-4.1-4.1-8.2-6.1-12.4c-1,0.3-2.2,0.2-3.1-0.6c-0.9-0.8-1.4-2.1-1.1-3.4c0.5-2.7,3.5-4,5.5-2.5
			c1,0.7,1.5,2,1.4,3.2c-0.1,1.1-0.7,2-1.4,2.6c1.7,3.6,3.4,7.1,5.2,10.6c0.2,0.4,0.7,0.4,0.9-0.1l3.7-8.6c0.1-0.1,0.1-0.3,0-0.4
			c-2-4.1-3.9-8.3-5.8-12.6c-1,0.3-2.2,0.1-3.1-0.7c-0.9-0.8-1.3-2.1-1-3.4c0.6-2.7,3.6-4,5.6-2.4c0.9,0.7,1.4,2,1.3,3.3
			c-0.1,1.2-0.7,2-1.4,2.6c1.6,3.6,3.3,7.2,4.9,10.8c0.2,0.4,0.7,0.4,0.9,0c1.3-2.8,2.5-5.6,3.8-8.4c0.1-0.2,0.1-0.3,0-0.5
			c-1.9-4.2-3.7-8.4-5.4-12.8c-1,0.3-2.2,0.1-3.1-0.8c-0.9-0.8-1.2-2.2-0.9-3.5c0.7-2.7,3.8-3.9,5.7-2.3c0.9,0.8,1.3,2.1,1.1,3.3
			c-0.2,1.2-0.8,2-1.6,2.6c1.5,3.7,3,7.3,4.5,10.9c0.2,0.4,0.8,0.4,1,0c1.4-2.8,2.7-5.6,4.2-8.3c0.1-0.1,0.1-0.3,0-0.5
			c-1.7-4.3-3.3-8.6-4.9-13c-1.1,0.2-2.2,0-3.1-0.9c-0.8-0.9-1.1-2.3-0.7-3.5c0.9-2.7,4-3.8,5.8-2c0.9,0.8,1.2,2.1,1,3.4
			c-0.2,1.2-0.9,2-1.7,2.5c1.3,3.8,2.6,7.4,4.1,11.1c0.2,0.4,0.8,0.4,1,0c1.5-2.7,2.9-5.4,4.4-8c0.1-0.1,0.1-0.3,0-0.5
			c-1.5-4.4-3-8.7-4.3-13.2c-1.1,0.2-2.2-0.1-3-1.1c-0.8-0.9-1-2.3-0.6-3.5c1-2.7,4.1-3.6,5.9-1.8c0.8,0.8,1.1,2.2,0.8,3.4
			c-0.3,1.1-1,1.9-1.8,2.4c1.1,3.8,2.4,7.5,3.6,11.2c0.1,0.4,0.7,0.5,1,0.1c1.6-2.7,3.2-5.3,4.8-8c0.1-0.1,0.1-0.3,0.1-0.5
			c-1.4-4.4-2.6-8.8-3.7-13.4c-1.1,0.1-2.2-0.2-3-1.2c-0.7-1-0.9-2.4-0.4-3.6c1.2-2.7,4.4-3.5,6.1-1.6c0.8,0.9,0.9,2.3,0.6,3.5
			c-0.4,1.1-1.1,1.9-1.9,2.4c0.9,3.9,1.9,7.7,3.1,11.5c0.1,0.4,0.7,0.5,1,0.1c1.7-2.5,3.3-5.1,5.1-7.6
			C315.8,45.9,315.9,45.7,315.8,45.5z"/>
	</g>
	<g>
		<g>
			<g>
				<path class="st3" d="M81.3,273.1v0.9c0.2,0.4,0.4,0.8,0.5,1.3c0.2,0.5,0.4,1,0.6,1.5c0,0,0,0,0,0.1l4.9,0.3l221.5,18.5
					c8.9,0,21.7,3.1,27.6,8.2c2.1,1.9,10.5,4,20.2,6.3c-1.6-10.4-25.5-7.7-29-15.1L81.3,273.1z"/>
				<path class="st3" d="M79.4,335.8l68.7,33.3l213.6-17.3c17.9,0,32.3-12.6,32.3-28.1c0-4.9-20.8-9.5-37.5-13.6
					c-9.7-2.3-18-4.4-20.2-6.3c-5.9-5.1-18.7-8.2-27.6-8.2L87.3,277.1l-4.9-0.3c2.7,7.2,4.9,19.2,4.9,29.1
					C87.3,319.1,84.7,329,79.4,335.8z"/>
				<path class="st3" d="M80.4,276.7l2,0.1l4.9,0.3c-1.5-0.9-3.2-1.5-5.5-1.8c-0.2,0-0.5-0.1-0.7-0.1L80.4,276.7z"/>
				<path class="st4" d="M80.6,275.2c2.7,0.3,4.6,1,6.3,1.9l-6.9-0.4L80.6,275.2z"/>
				<polygon class="st5" points="407.9,310 308.1,273.1 78.3,273.3 147.5,309.8 				"/>
				<path class="st6" d="M155.8,339.7c-0.2-10.4-5-20.7-8.3-26.5l0-3.5h260.4c3.7,7.7,8.7,18.3,8.7,30c0,13.2-5.6,24.9-10.2,32.7
					H147.6v-3.9C151,361,155.8,350.9,155.8,339.7z"/>
				<path class="st6" d="M155.8,339.7c-0.2-10.4-5-20.7-8.3-26.5l0-3.5h260.4c3.7,7.7,8.7,18.3,8.7,30c0,13.2-5.6,24.9-10.2,32.7
					H147.6v-3.9C151,361,155.8,350.9,155.8,339.7z"/>
				<g>
					<path class="st5" d="M199.5,368.2h8.1c3.9-6.7,8.8-16.9,8.8-28.3c0-10.1-4.4-19.3-7.6-25.9h-8.1c3.2,6.6,7.6,15.8,7.6,25.9
						C208.4,351.3,203.5,361.5,199.5,368.2z"/>
					<path class="st5" d="M181.8,368.2h8.1c3.9-6.7,8.8-16.9,8.8-28.3c0-10.1-4.4-19.3-7.6-25.9h-8.1c3.2,6.6,7.6,15.8,7.6,25.9
						C190.7,351.3,185.8,361.5,181.8,368.2z"/>
				</g>
				<path class="st7" d="M147.1,309.8c0.1,0.3,0.3,0.6,0.4,0.9v-0.9H147.1z"/>
				<polygon class="st8" points="147.5,313.2 78.3,276.1 78.3,273.3 147.5,309.8 				"/>
				<polygon class="st8" points="147.6,372.4 79.5,338.6 79.4,335.8 147.6,368.6 				"/>
			</g>
		</g>
		<g>
			<g>
				<path class="st3" d="M125,251.5c0-8.7-3.8-19.6-8.8-24.6c-4.3-4.2-5.9-8-12.2-8.7l-0.6,1.5l151.4,10.5c7.6,0,18.5,3.1,23.6,8.1
					c5,5,49.3,11.9,49.3,19.6c0,15.3-12.4,27.7-27.7,27.7l-146.5,17L103.4,278l0,0C117.1,276.3,125,265.6,125,251.5z"/>
				<path class="st4" d="M104,218.1c2.3,0.3,3.9,1,5.3,1.9l-5.9-0.4L104,218.1z"/>
				<polygon class="st9" points="355.3,244.3 272,216.3 102.1,216.3 153.5,244.1 				"/>
				<g>
					<path class="st7" d="M259.9,297l0-1.9l3.1-0.6l-3.1,0.6l0.8-35.5l16.6,1.8l-14.8-8.2l-3.3,1.5l-1.7-3.4l-35.2-3.7v-3.4H352
						c8.2,0,16,3.2,21.9,9c5.8,5.9,9,13.6,9,21.8c0,17-13.9,30.9-30.9,30.9H222.3v-3.3l37.6-7.4L259.9,297z"/>
					<path class="st7" d="M191.1,297l0-1.9l3.1-0.6l-3.1,0.6l0.8-35.5l16.6,1.8l-14.8-8.2l-3.3,1.5l-1.7-3.4l-35.2-3.7v-3.4h197.7
						c8.2,0,16,3.2,21.9,9c5.8,5.9,9,13.6,9,21.8c0,17-13.9,30.9-30.9,30.9H153.5v-3.3l37.6-7.4L191.1,297z"/>
					<path class="st10" d="M177.8,274.9c0-7.7-3.1-14.6-8.1-19.6c-4.3-4.2-9.9-7.1-16.2-7.9v-0.2h197.7c7.6,0,14.6,3.1,19.6,8.1
						c5,5,8.1,11.9,8.1,19.6c0,15.3-12.4,27.7-27.7,27.7H153.5v-0.2C167.2,300.7,177.8,289.1,177.8,274.9z"/>
					<path class="st11" d="M153.5,247.3h197.7c5.5,0,10.5,1.6,14.8,4.3H165c-3.4-2.1-7.3-3.6-11.5-4.1V247.3z"/>
					<line class="st12" x1="367" y1="256.9" x2="174.1" y2="256.9"/>
					<line class="st12" x1="372.5" y1="264.9" x2="177.2" y2="264.9"/>
					<line class="st12" x1="373.5" y1="282.3" x2="178.2" y2="282.3"/>
					<line class="st12" x1="375" y1="273.6" x2="179.7" y2="273.6"/>
					<line class="st12" x1="369.7" y1="291" x2="174.3" y2="291"/>
					<line class="st12" x1="360.5" y1="298.7" x2="168.6" y2="298.7"/>
				</g>
				<polygon class="st13" points="153.5,247.5 102.1,219.1 102.1,216.3 153.5,244.1 				"/>
				<polygon class="st13" points="153.5,305.8 103.1,280.6 103,277.8 153.5,302.4 				"/>
			</g>
		</g>
		<g>
			<polygon class="st14" points="387.4,209 280.1,171.3 133.4,171.3 250.3,209 			"/>
			<g>
				<g>
					<path class="st15" d="M126.5,189.3c0,8.2,2.9,17,6.7,19.6l117.1,40.7V209c-1.9-0.5-115.2-37.3-116.9-37.7
						C131.2,172.7,126.5,181,126.5,189.3z"/>
				</g>
			</g>
			<g>
				<path class="st16" d="M163.8,181.8c0.2,0,2,0.6,5,1.6c0,0,0,0,0,0c-2.1,1.4-6,9.8-6,18c0,8,2.8,16.4,6.5,19.1l-5.6-2
					c-3.7-2.5-6.6-11.1-6.6-19.1C157,191.3,161.7,183.2,163.8,181.8z"/>
			</g>
			<g>
				<path class="st16" d="M152.6,178.2c0.2,0,2,0.6,5,1.6c0,0,0,0,0,0c-2.1,1.4-6,9.8-6,18c0,8,2.8,16.4,6.5,19.1l-5.6-2
					c-3.7-2.5-6.6-11.1-6.6-19.1C145.9,187.7,150.5,179.6,152.6,178.2z"/>
			</g>
			<path class="st10" d="M242.5,229.5c0,9.3,3.1,17.2,7.4,20.1H387c-4.3-2.9-7.4-10.8-7.4-20.1c0-9.6,3.3-17.8,7.8-20.5H250.3
				C245.8,211.7,242.5,219.8,242.5,229.5z"/>
			<line class="st17" x1="379.4" y1="212.5" x2="250.5" y2="212.5"/>
			<line class="st17" x1="377.9" y1="217.9" x2="249" y2="217.9"/>
			<line class="st17" x1="376.4" y1="223.4" x2="247.6" y2="223.4"/>
			<line class="st17" x1="374.9" y1="228.8" x2="246.1" y2="228.8"/>
			<line class="st17" x1="374.4" y1="234.3" x2="244.6" y2="234.3"/>
			<line class="st17" x1="376.4" y1="239.7" x2="247.6" y2="239.7"/>
			<line class="st17" x1="379.4" y1="245.2" x2="250.5" y2="245.2"/>
		</g>
		<g>
			<g>
				<path class="st3" d="M137.7,150.9c0-7.5-3.3-17-7.6-21.4c-3.7-3.7-5.1-6.9-10.6-7.6l-0.5,1.3l131.5,9.2c6.6,0,16.1,2.7,20.5,7
					c4.3,4.4,42.8,10.3,42.8,17c0,13.3-10.8,24-24,24l-127.3,14.8L119,173.9l0,0C130.9,172.5,137.7,163.2,137.7,150.9z"/>
				<path class="st4" d="M119.5,122c2,0.2,3.4,0.8,4.6,1.7l-5.1-0.4L119.5,122z"/>
				<polygon class="st18" points="337.8,144.7 265.4,120.4 117.8,120.4 162.6,144.5 				"/>
				<g>
					<path class="st19" d="M255,190.5l0-1.7l2.7-0.5l-2.7,0.5l0.7-30.9l14.5,1.5l-12.9-7.1l-2.8,1.3l-1.5-3l-30.6-3.2v-3h112.6
						c7.1,0,13.9,2.8,19,7.9c5.1,5.1,7.8,11.8,7.8,19c0,14.8-12,26.8-26.8,26.8H222.3v-2.9l32.6-6.5L255,190.5z"/>
					<path class="st19" d="M195.2,190.5l0-1.7l2.7-0.5l-2.7,0.5l0.7-30.9l14.5,1.5l-12.9-7.1l-2.8,1.3l-1.5-3l-30.6-3.2v-3h171.7
						c7.1,0,13.9,2.8,19,7.9c5.1,5.1,7.8,11.8,7.8,19c0,14.8-12,26.8-26.8,26.8H162.6v-2.9l32.6-6.5L195.2,190.5z"/>
					<path class="st10" d="M183.7,171.3c0-6.7-2.7-12.6-7-17c-3.7-3.7-8.6-6.2-14.1-6.8v-0.2h171.7c6.6,0,12.6,2.7,17,7
						c4.3,4.4,7,10.3,7,17c0,13.3-10.8,24-24,24H162.6v-0.2C174.4,193.7,183.7,183.6,183.7,171.3z"/>
					<path class="st11" d="M162.6,147.3h171.7c4.7,0,9.2,1.4,12.9,3.8H172.5c-2.9-1.9-6.3-3.1-9.9-3.6V147.3z"/>
					<line class="st20" x1="348" y1="155.7" x2="180.4" y2="155.7"/>
					<line class="st20" x1="352.8" y1="162.6" x2="183.1" y2="162.6"/>
					<line class="st20" x1="353.6" y1="177.7" x2="184" y2="177.7"/>
					<line class="st20" x1="355" y1="170.2" x2="185.3" y2="170.2"/>
					<line class="st20" x1="350.3" y1="185.2" x2="180.6" y2="185.2"/>
					<line class="st20" x1="342.3" y1="191.9" x2="175.6" y2="191.9"/>
				</g>
				<polygon class="st21" points="162.6,147.5 117.8,122.8 117.8,120.4 162.6,144.5 				"/>
				<polygon class="st21" points="162.6,198.1 118.7,176.2 118.6,173.8 162.6,195.1 				"/>
			</g>
		</g>
	</g>
	<g>
		<g>
			<path class="st22" d="M521.5,364.1c3.5,0.9,7.2,1.1,10.7,1.8c0.5,0.1,1.1,0.3,1.3,0.7c0.2,0.3,0.2,0.7,0.1,1.1
				c-0.4,2.1-2.7,3.3-4.8,3.8c-4.6,1.2-9.5,0.6-14.3,0c-2-0.2-4-0.3-6-0.7c-1.5-0.2-3.1-0.5-4.6-0.7c-0.7-0.1-1.5-0.3-2-0.8
				c-0.5-0.5-0.7-1.2-0.7-1.9c0.1-1.1,0.4-2.3,0.6-3.5c4.8,0.5,9.6-0.4,14.6-2.1C518,362.9,519.7,363.6,521.5,364.1z"/>
			<path class="st23" d="M502.1,359.6c-0.2-1.4-0.7-2.7-1.8-3.6c3.6,0.1,7.1,0.2,10.7,0.4c0.4,0,0.8,0,1.1,0.2
				c0.3,0.2,0.5,0.6,0.3,0.9l0.4,0.3c0.8,1.6,2.1,2.9,3.6,3.9c-5,1.7-9.9,2.6-14.6,2.1c0-0.1,0-0.2,0-0.3
				C502.1,362.3,502.3,360.9,502.1,359.6z"/>
		</g>
		<g>
			<path class="st22" d="M502.4,381.1c1.4,0.4,2.8,0.8,4.2,1.2c2.1,0.6,4.2,0.4,6.4,0.7c0.5,0.1,1.1,0.2,1.4,0.6
				c0.2,0.3,0.2,0.7,0.2,1.1c-0.3,2.1-2.5,3.4-4.5,4.1c-4.2,1.4-8.4,1-12.7,1.1c-4.5,0.1-8.6,0.6-13.1-0.3c-0.5-0.1-1.1-0.2-1.5-0.6
				c-0.7-0.6-0.7-1.7-0.6-2.6c0.2-1.5-0.2-2.6,1.3-3.1c0.9-0.3,2-0.2,2.9-0.4c1.7-0.2,3.5-0.4,5.1-0.9c2.9-0.8,5.2-2.6,8.1-1.7
				C500.6,380.5,501.5,380.8,502.4,381.1z"/>
			<path class="st23" d="M482.6,378.7c-0.3-1.3-0.9-2.7-2-3.4c3.6-0.1,7.1-0.3,10.7-0.3c0.4,0,0.8,0,1.1,0.2
				c0.3,0.2,0.6,0.6,0.4,0.9l0.4,0.3c0.9,1.6,2.3,2.8,3.8,3.7c-4.8,2-9.7,3.3-14.4,3.1c0-0.1,0-0.2,0-0.3
				C482.7,381.4,482.8,380,482.6,378.7z"/>
		</g>
		<path class="st24" d="M455.3,319c0,0,11.4-8.4,24.9-2.5c13.5,5.9,35.1,41.5,35.1,41.5s-15.7,8.4-15.6,7.2
			c0.1-1.1-25.6-32.4-30.7-32.5c-5.1-0.1-16.4,7.3-16.4,7.3l-11.9-3.5l1.7-15.5L455.3,319z"/>
		<path class="st25" d="M413.6,288.3c0,0,6.5,37.2,14.8,39.5c0,0,15.2-6.9,27.1-13.5l-0.3,8.6c0,0-19.8,19.8-35.9,15.2
			c-16.1-4.5-15.7-24.8-15.7-24.8L413.6,288.3z"/>
		<path class="st7" d="M412.1,285.5c1.7,1.8,2.5,3.9,2.9,6.4c0.7,4.3,2.3,37.5,11.7,52.7c-9,3.8-18,8.1-28,8.4
			c-3.8,0.1-7.5-0.4-11.2,0.2c-0.3-2.5-2.5-5.1-3.6-7.3c-1.6-3.2-3-6.5-4.6-9.8c-3.4-7.2-4.4-15.2-3.9-23.1c0.4-7.8,2.3-13.5,7-19.8
			C391,281.9,409.3,282.6,412.1,285.5z"/>
		<path class="st26" d="M398,292.2c-1.2-0.7-2.3-1.7-2.9-2.9c-0.4-0.8-0.6-1.7-0.6-2.6c-0.2-1.9,0.1-3.8,0.8-5.5
			c0.1-0.3,0.2-0.6,0.5-0.7c0.2-0.1,0.5-0.1,0.8,0c2.4,0.5,4.6,1.8,6.6,3.3c1.4,1,2.9,2.2,3.7,3.7c1.1,2,1.4,5-1.1,5.7
			C403.3,293.9,400.3,293.4,398,292.2z"/>
		<g>
			<path class="st27" d="M412.5,250.5c7.6,2.1,14.6,8.7,15.3,16.7c0.4,3.8-1,7.1-1.8,10.7c-0.2,1.1-0.7,2.2-0.6,3.4
				c0.1,1,1.3,2.5,1,3.5c-0.6,2.3-4.4,2.1-6.1,3.4c-2.4,1.9-3.2,4.4-6.4,5.5c-4.5,1.5-8.3-0.6-11.9-3.2c-2.3-1.6-4.3-3.7-6-5.9
				c-1.4-1.9-3.5-4.5-3.4-6.9c0.2-2.4,0.4-4.8,0.4-7.2c0-3.5,1.9-7.6,3.2-10.8c1.2-2.9,2.5-6.2,5.2-8
				C404.5,249.7,409.1,249.5,412.5,250.5z"/>
			<path class="st28" d="M416.6,251.5c6,2.2,12.5,6.8,15.6,12.6c0.5,0.9,0.9,1.9,1,2.9c0.2,2.1-0.7,4.2-2.3,5.5
				c-1.6,1.4-3.6,2-5.7,2.1c1.8-1.8,1.8-5.2-0.2-6.8c-1.8,2.4-4.8,2.9-7.7,2.3c-3.1-0.7-6.1-2.4-9.3-2.8c-3.1-0.4-3.6,3-3.9,5.5
				c-1.3-0.5-2-3.7-3.7-2.1c-1.2,1.2-0.4,5.2,1.4,5.4c-1.7,3.4-3.8,7.9-7.9,8.9c0.2-1.8-1-3-1.7-4.5c-1.1-2.1-1.2-4.5-1.6-6.8
				c-0.9-6.4,0.5-14.2,5.2-18.9c1.4-1.4,3.1-2.5,4.8-3.5c1.5-0.9,3.3-1.4,5.1-1.6c2.9-0.3,6,0.4,8.8,1.3
				C415.3,251,415.9,251.3,416.6,251.5z"/>
		</g>
		<g>
			<polygon class="st16" points="471.8,320.6 481.2,303.9 441.1,315.7 464.6,322.5 			"/>
			<path class="st29" d="M477.2,304.9l2.2-1.1c0,0-9.5,12.6-9.1,16.7L467,316l0.9-5.7c0,0,4.1-2.6,4.2-2.8
				C472.3,307.3,477.2,304.9,477.2,304.9z"/>
			<path class="st30" d="M470.7,320.8c0,0-2.1-4.1,0.7-9.6c1.7-3.4,4.1-3.7,8-7.8l-33.4,9.8l5.7,6.9L470.7,320.8z"/>
			<path class="st31" d="M444.4,307.2c7.2,4.1,14.5,7.9,22.1,11.2c0.9,0.4,3.3,1.9,4.2,1.2c-0.4-1.4-2.8-3.1-3.9-4
				c-1.5-1.3-3.1-2.4-4.8-3.4c-3.4-2-7.1-3.5-11-4.3C448.8,307.5,446.6,307.3,444.4,307.2z"/>
			<polygon class="st15" points="471.8,320.6 446.2,305.1 410,327.5 430.8,343.3 			"/>
		</g>
		<path class="st18" d="M387.4,353.2c-1.1,0.4,5.8,12,6.3,12.7c6.9,8.1,20,11.7,29.8,7.1c6.2-3,12.1-7.8,16.7-12.9
			c2.9-3.2,6.3-6.1,10-8.5c0.4-0.3,0.8-0.5,1.3-0.7c1.5-0.6,3.3-0.1,4.6,0.9c1.3,0.9,2.3,2.3,3.2,3.6c3.2,4.5,7,8.3,10.1,12.9
			c2.9,4.3,5.2,9.1,8.5,13.1c0.6,0.8,1.3,1.7,2.3,2c0.9,0.3,1.9,0.1,2.8-0.1c5.4-1.3,10.7-3.4,15.5-6.2
			c-8.7-15.8-18.2-31.2-28.3-46.2c-1.3-2-2.8-4-4.9-5.1c-1.7-0.9-3.6-1-5.5-1c-18.4-0.1-32.4,15.1-49.1,20.7
			C410.7,345.4,387.4,353.2,387.4,353.2z"/>
		<g>
			<path class="st27" d="M437.5,328c0.4-0.6,0.9-1.2,1.4-1.7c1.3-1.5,2.7-2.7,3.7-4.4c0.8,0.8,0.9,2.2,0.2,3.1c-0.4,0.5-1,1-0.7,1.5
				c3.4-1.5,6.8-3,10.2-4.5c0.4,4-1.2,8.2-4.2,10.9s-7.4,3.7-11.3,2.8c-1.1-0.3-3.7-1-3.6-2.6c0-0.4,0.2-0.7,0.4-1
				c0.2-0.4,0.5-0.8,0.8-1.1c0.3-0.2,0.6-0.4,0.8-0.6C436.1,329.7,436.8,328.9,437.5,328z"/>
			<path class="st32" d="M385.1,293.2c0.9-0.6,5-0.7,8.3,6.2c3.3,6.8,8.2,34.2,8.2,34.2s21.8-2.4,34.6-4.6l-0.3,8.7
				c0,0-38.9,17.5-48.6,5.9C377.7,332,373.5,300.2,385.1,293.2z"/>
		</g>
	</g>
</g>
</svg>
